<svg width="408" height="416" fill="none" xmlns="http://www.w3.org/2000/svg"><g filter="url(#filter0_d)"><circle cx="204" cy="200" r="200" fill="#3A3B40"/></g><g filter="url(#filter1_i)"><ellipse cx="179" cy="199.5" rx="59" ry="64.5" fill="#3A3B40"/></g><g filter="url(#filter2_i)"><ellipse cx="331.5" cy="139" rx="34.5" ry="38" fill="#3A3B40"/></g><g filter="url(#filter3_i)"><ellipse cx="286.5" cy="318" rx="34.5" ry="38" fill="#3A3B40"/></g><g filter="url(#filter4_i)"><ellipse cx="122.5" cy="328" rx="34.5" ry="38" fill="#3A3B40"/></g><g filter="url(#filter5_i)"><ellipse cx="122.5" cy="76" rx="34.5" ry="38" fill="#3A3B40"/></g><g filter="url(#filter6_d)"><path d="M36.094 204.691l.299 1.407.316-1.389 4.605-13.729h4.342L38.203 210h-3.621l-7.523-19.02H31.4l4.694 13.711zm18.615-13.711h10.143v15.54h5.642V210H54.71v-3.48h5.906v-12.041H54.71v-3.499zm5.555-4.921c0-.657.21-1.196.633-1.618.421-.433 1.013-.65 1.775-.65.773 0 1.371.217 1.793.65.433.422.65.961.65 1.618 0 .656-.217 1.201-.65 1.634-.422.422-1.02.633-1.793.633-.762 0-1.354-.211-1.775-.633-.422-.433-.633-.978-.633-1.634zm21.445 4.921l.105 2.004c.376-.738.88-1.312 1.512-1.722.633-.422 1.395-.633 2.285-.633.809 0 1.477.164 2.004.492.54.317.944.815 1.213 1.494a4.238 4.238 0 011.441-1.441c.587-.363 1.295-.545 2.127-.545.622 0 1.19.105 1.706.316.527.2.972.522 1.335.967.376.445.663 1.014.862 1.705.21.692.316 1.524.316 2.496V210h-3.902v-13.922c0-.762-.164-1.283-.492-1.564-.317-.293-.727-.44-1.23-.44-.481 0-.862.117-1.143.352a1.894 1.894 0 00-.616.896V210h-3.814v-13.922c0-.738-.152-1.254-.457-1.547-.293-.304-.697-.457-1.213-.457-.492 0-.879.106-1.16.317a2.03 2.03 0 00-.65.861V210h-3.903v-19.02h3.674zm50.977 0l.105 2.004c.375-.738.879-1.312 1.512-1.722.633-.422 1.394-.633 2.285-.633.808 0 1.476.164 2.004.492.539.317.943.815 1.213 1.494a4.236 4.236 0 011.441-1.441c.586-.363 1.295-.545 2.127-.545.621 0 1.189.105 1.705.316.527.2.973.522 1.336.967.375.445.662 1.014.861 1.705.211.692.317 1.524.317 2.496V210h-3.903v-13.922c0-.762-.164-1.283-.492-1.564-.316-.293-.726-.44-1.23-.44-.481 0-.862.117-1.143.352a1.896 1.896 0 00-.615.896V210h-3.814v-13.922c0-.738-.153-1.254-.457-1.547-.293-.304-.698-.457-1.213-.457-.493 0-.879.106-1.161.317a2.029 2.029 0 00-.65.861V210h-3.902v-19.02h3.674zm22.289 9.334c0-1.371.199-2.648.597-3.832.41-1.183.99-2.209 1.74-3.076a8.067 8.067 0 012.778-2.039c1.09-.492 2.326-.738 3.709-.738 1.394 0 2.637.246 3.726.738a7.847 7.847 0 012.778 2.039c.761.867 1.342 1.893 1.74 3.076.398 1.184.598 2.461.598 3.832v.37c0 1.382-.2 2.666-.598 3.849-.398 1.184-.979 2.209-1.74 3.076a7.981 7.981 0 01-2.76 2.022c-1.09.492-2.326.738-3.709.738-1.395 0-2.643-.246-3.744-.738a8.166 8.166 0 01-2.778-2.022c-.75-.867-1.33-1.892-1.74-3.076-.398-1.183-.597-2.467-.597-3.849v-.37zm4.201.37c0 .867.088 1.681.263 2.443a6.69 6.69 0 00.844 2.021 4.405 4.405 0 001.459 1.372c.586.328 1.283.492 2.092.492.785 0 1.465-.164 2.039-.492a4.24 4.24 0 001.441-1.372 6.135 6.135 0 00.844-2.021c.188-.762.281-1.576.281-2.443v-.37c0-.843-.093-1.646-.281-2.408-.176-.761-.457-1.429-.844-2.004a4.246 4.246 0 00-1.441-1.371c-.574-.34-1.266-.51-2.074-.51-.797 0-1.488.17-2.074.51a4.249 4.249 0 00-1.442 1.371c-.375.575-.656 1.243-.844 2.004a10.732 10.732 0 00-.263 2.408v.37zm21.287-.37c0-1.371.199-2.648.598-3.832.41-1.183.99-2.209 1.74-3.076a8.053 8.053 0 012.777-2.039c1.09-.492 2.326-.738 3.709-.738 1.395 0 2.637.246 3.727.738a7.852 7.852 0 012.777 2.039c.762.867 1.342 1.893 1.74 3.076.399 1.184.598 2.461.598 3.832v.37c0 1.382-.199 2.666-.598 3.849-.398 1.184-.978 2.209-1.74 3.076a7.981 7.981 0 01-2.76 2.022c-1.09.492-2.326.738-3.709.738-1.394 0-2.642-.246-3.744-.738a8.152 8.152 0 01-2.777-2.022c-.75-.867-1.33-1.892-1.74-3.076-.399-1.183-.598-2.467-.598-3.849v-.37zm4.201.37c0 .867.088 1.681.264 2.443.187.762.468 1.435.843 2.021a4.415 4.415 0 001.459 1.372c.586.328 1.284.492 2.092.492.785 0 1.465-.164 2.039-.492a4.242 4.242 0 001.442-1.372 6.134 6.134 0 00.843-2.021c.188-.762.282-1.576.282-2.443v-.37c0-.843-.094-1.646-.282-2.408a5.954 5.954 0 00-.843-2.004 4.249 4.249 0 00-1.442-1.371c-.574-.34-1.265-.51-2.074-.51-.797 0-1.488.17-2.074.51a4.249 4.249 0 00-1.442 1.371 6.459 6.459 0 00-.843 2.004 10.674 10.674 0 00-.264 2.408v.37zm25.857-9.704l.264 2.637c.692-.949 1.524-1.681 2.496-2.197.985-.527 2.074-.791 3.27-.791.972 0 1.857.141 2.654.422.809.281 1.5.72 2.074 1.318.586.598 1.037 1.371 1.354 2.32.328.95.492 2.092.492 3.428V210h-4.201v-11.812c0-.786-.094-1.442-.281-1.969-.176-.528-.434-.949-.774-1.266a2.733 2.733 0 00-1.213-.668 5.84 5.84 0 00-1.635-.211c-.925 0-1.734.205-2.425.615a4.806 4.806 0 00-1.653 1.67V210h-4.218v-19.02h3.796zm55.495 16.032c.515 0 1.013-.082 1.494-.246a4.304 4.304 0 001.301-.686c.375-.293.668-.639.878-1.037.223-.398.329-.832.317-1.301h3.973c.011.914-.2 1.776-.633 2.584a6.725 6.725 0 01-1.741 2.092 8.586 8.586 0 01-2.531 1.424 8.744 8.744 0 01-3.023.527c-1.465 0-2.748-.252-3.85-.756-1.101-.504-2.021-1.189-2.76-2.056a9.045 9.045 0 01-1.67-3.041 12.3 12.3 0 01-.544-3.692v-.633c0-1.3.181-2.531.544-3.691.375-1.16.932-2.174 1.67-3.041.739-.867 1.659-1.553 2.76-2.057 1.102-.515 2.379-.773 3.832-.773 1.149 0 2.209.176 3.182.527.984.352 1.828.844 2.531 1.477a6.462 6.462 0 011.652 2.267c.399.879.592 1.84.581 2.883h-3.973a3.414 3.414 0 00-.281-1.459 3.371 3.371 0 00-.827-1.195 4.13 4.13 0 00-1.283-.809 4.273 4.273 0 00-1.617-.299c-.879 0-1.611.182-2.197.545a4.039 4.039 0 00-1.406 1.407 6.076 6.076 0 00-.756 1.968 11.978 11.978 0 00-.211 2.25v.633c0 .774.07 1.53.211 2.268.152.738.404 1.4.756 1.986.351.574.82 1.043 1.406 1.406.586.352 1.324.528 2.215.528zm16.4-6.698c0-1.371.199-2.648.598-3.832.41-1.183.99-2.209 1.74-3.076a8.063 8.063 0 012.777-2.039c1.09-.492 2.326-.738 3.709-.738 1.395 0 2.637.246 3.727.738a7.852 7.852 0 012.777 2.039c.762.867 1.342 1.893 1.74 3.076.399 1.184.598 2.461.598 3.832v.37c0 1.382-.199 2.666-.598 3.849-.398 1.184-.978 2.209-1.74 3.076a7.981 7.981 0 01-2.76 2.022c-1.089.492-2.326.738-3.709.738-1.394 0-2.642-.246-3.744-.738a8.162 8.162 0 01-2.777-2.022c-.75-.867-1.33-1.892-1.74-3.076-.399-1.183-.598-2.467-.598-3.849v-.37zm4.201.37c0 .867.088 1.681.264 2.443.187.762.469 1.435.844 2.021a4.396 4.396 0 001.459 1.372c.586.328 1.283.492 2.091.492.786 0 1.465-.164 2.039-.492a4.242 4.242 0 001.442-1.372 6.135 6.135 0 00.844-2.021c.187-.762.281-1.576.281-2.443v-.37c0-.843-.094-1.646-.281-2.408-.176-.761-.457-1.429-.844-2.004a4.249 4.249 0 00-1.442-1.371c-.574-.34-1.265-.51-2.074-.51-.797 0-1.488.17-2.074.51a4.246 4.246 0 00-1.441 1.371 6.46 6.46 0 00-.844 2.004 10.674 10.674 0 00-.264 2.408v.37zM309.451 183h10.283v23.52h5.801V210h-16.084v-3.48h6.047v-20.022h-6.047V183zm23.942 17.314c0-1.371.199-2.648.597-3.832.41-1.183.99-2.209 1.74-3.076a8.067 8.067 0 012.778-2.039c1.09-.492 2.326-.738 3.709-.738 1.394 0 2.637.246 3.726.738a7.847 7.847 0 012.778 2.039c.761.867 1.341 1.893 1.74 3.076.398 1.184.598 2.461.598 3.832v.37c0 1.382-.2 2.666-.598 3.849-.399 1.184-.979 2.209-1.74 3.076a7.981 7.981 0 01-2.76 2.022c-1.09.492-2.326.738-3.709.738-1.395 0-2.643-.246-3.744-.738a8.166 8.166 0 01-2.778-2.022c-.75-.867-1.33-1.892-1.74-3.076-.398-1.183-.597-2.467-.597-3.849v-.37zm4.201.37c0 .867.088 1.681.263 2.443a6.69 6.69 0 00.844 2.021 4.405 4.405 0 001.459 1.372c.586.328 1.283.492 2.092.492.785 0 1.465-.164 2.039-.492a4.24 4.24 0 001.441-1.372 6.135 6.135 0 00.844-2.021c.188-.762.281-1.576.281-2.443v-.37c0-.843-.093-1.646-.281-2.408-.176-.761-.457-1.429-.844-2.004a4.246 4.246 0 00-1.441-1.371c-.574-.34-1.266-.51-2.074-.51-.797 0-1.488.17-2.074.51a4.249 4.249 0 00-1.442 1.371c-.375.575-.656 1.243-.844 2.004a10.732 10.732 0 00-.263 2.408v.37zm35.121-10.055c.34 0 .68.012 1.019.035.34.024.662.059.967.106.317.046.604.099.861.158.258.047.475.105.651.176l-.598 4.13a17.165 17.165 0 00-3.814-.439c-1.406 0-2.543.293-3.41.879-.856.586-1.489 1.4-1.899 2.443V210h-4.201v-19.02h3.938l.193 2.971c.773-1.031 1.687-1.84 2.742-2.426 1.066-.597 2.25-.896 3.551-.896z" fill="#F2F0F2"/></g><defs><filter id="filter0_d" x="0" y="0" width="408" height="416" filterUnits="userSpaceOnUse" color-interpolation-filters="sRGB"><feFlood flood-opacity="0" result="BackgroundImageFix"/><feColorMatrix in="SourceAlpha" values="0 0 0 0 0 0 0 0 0 0 0 0 0 0 0 0 0 0 127 0"/><feOffset dy="12"/><feGaussianBlur stdDeviation="2"/><feColorMatrix values="0 0 0 0 0 0 0 0 0 0 0 0 0 0 0 0 0 0 0.25 0"/><feBlend in2="BackgroundImageFix" result="effect1_dropShadow"/><feBlend in="SourceGraphic" in2="effect1_dropShadow" result="shape"/></filter><filter id="filter1_i" x="120" y="135" width="118" height="133" filterUnits="userSpaceOnUse" color-interpolation-filters="sRGB"><feFlood flood-opacity="0" result="BackgroundImageFix"/><feBlend in="SourceGraphic" in2="BackgroundImageFix" result="shape"/><feColorMatrix in="SourceAlpha" values="0 0 0 0 0 0 0 0 0 0 0 0 0 0 0 0 0 0 127 0" result="hardAlpha"/><feOffset dy="4"/><feGaussianBlur stdDeviation="2"/><feComposite in2="hardAlpha" operator="arithmetic" k2="-1" k3="1"/><feColorMatrix values="0 0 0 0 0 0 0 0 0 0 0 0 0 0 0 0 0 0 0.25 0"/><feBlend in2="shape" result="effect1_innerShadow"/></filter><filter id="filter2_i" x="297" y="101" width="69" height="80" filterUnits="userSpaceOnUse" color-interpolation-filters="sRGB"><feFlood flood-opacity="0" result="BackgroundImageFix"/><feBlend in="SourceGraphic" in2="BackgroundImageFix" result="shape"/><feColorMatrix in="SourceAlpha" values="0 0 0 0 0 0 0 0 0 0 0 0 0 0 0 0 0 0 127 0" result="hardAlpha"/><feOffset dy="4"/><feGaussianBlur stdDeviation="2"/><feComposite in2="hardAlpha" operator="arithmetic" k2="-1" k3="1"/><feColorMatrix values="0 0 0 0 0 0 0 0 0 0 0 0 0 0 0 0 0 0 0.25 0"/><feBlend in2="shape" result="effect1_innerShadow"/></filter><filter id="filter3_i" x="252" y="280" width="69" height="80" filterUnits="userSpaceOnUse" color-interpolation-filters="sRGB"><feFlood flood-opacity="0" result="BackgroundImageFix"/><feBlend in="SourceGraphic" in2="BackgroundImageFix" result="shape"/><feColorMatrix in="SourceAlpha" values="0 0 0 0 0 0 0 0 0 0 0 0 0 0 0 0 0 0 127 0" result="hardAlpha"/><feOffset dy="4"/><feGaussianBlur stdDeviation="2"/><feComposite in2="hardAlpha" operator="arithmetic" k2="-1" k3="1"/><feColorMatrix values="0 0 0 0 0 0 0 0 0 0 0 0 0 0 0 0 0 0 0.25 0"/><feBlend in2="shape" result="effect1_innerShadow"/></filter><filter id="filter4_i" x="88" y="290" width="69" height="80" filterUnits="userSpaceOnUse" color-interpolation-filters="sRGB"><feFlood flood-opacity="0" result="BackgroundImageFix"/><feBlend in="SourceGraphic" in2="BackgroundImageFix" result="shape"/><feColorMatrix in="SourceAlpha" values="0 0 0 0 0 0 0 0 0 0 0 0 0 0 0 0 0 0 127 0" result="hardAlpha"/><feOffset dy="4"/><feGaussianBlur stdDeviation="2"/><feComposite in2="hardAlpha" operator="arithmetic" k2="-1" k3="1"/><feColorMatrix values="0 0 0 0 0 0 0 0 0 0 0 0 0 0 0 0 0 0 0.25 0"/><feBlend in2="shape" result="effect1_innerShadow"/></filter><filter id="filter5_i" x="88" y="38" width="69" height="80" filterUnits="userSpaceOnUse" color-interpolation-filters="sRGB"><feFlood flood-opacity="0" result="BackgroundImageFix"/><feBlend in="SourceGraphic" in2="BackgroundImageFix" result="shape"/><feColorMatrix in="SourceAlpha" values="0 0 0 0 0 0 0 0 0 0 0 0 0 0 0 0 0 0 127 0" result="hardAlpha"/><feOffset dy="4"/><feGaussianBlur stdDeviation="2"/><feComposite in2="hardAlpha" operator="arithmetic" k2="-1" k3="1"/><feColorMatrix values="0 0 0 0 0 0 0 0 0 0 0 0 0 0 0 0 0 0 0.25 0"/><feBlend in2="shape" result="effect1_innerShadow"/></filter><filter id="filter6_d" x="23.059" y="183" width="357.154" height="37.369" filterUnits="userSpaceOnUse" color-interpolation-filters="sRGB"><feFlood flood-opacity="0" result="BackgroundImageFix"/><feColorMatrix in="SourceAlpha" values="0 0 0 0 0 0 0 0 0 0 0 0 0 0 0 0 0 0 127 0"/><feOffset dy="6"/><feGaussianBlur stdDeviation="2"/><feColorMatrix values="0 0 0 0 0 0 0 0 0 0 0 0 0 0 0 0 0 0 0.25 0"/><feBlend in2="BackgroundImageFix" result="effect1_dropShadow"/><feBlend in="SourceGraphic" in2="effect1_dropShadow" result="shape"/></filter></defs></svg>