<svg width="461" height="801" fill="none" xmlns="http://www.w3.org/2000/svg"><path fill="#15212D" d="M0 0h461v801H0z"/><path fill="#15212D" stroke="#fff" d="M78.5 45.5h126v38h-126z"/><path d="M132.99 69v-8.531h2.789c.926 0 1.621.191 2.086.574.469.383.703.95.703 1.7 0 .398-.113.751-.339 1.06a2.22 2.22 0 01-.926.709 1.96 1.96 0 011.09.738c.269.36.404.79.404 1.29 0 .765-.248 1.366-.744 1.804-.496.437-1.198.656-2.104.656h-2.959zm1.125-3.99v3.07h1.858c.523 0 .935-.135 1.236-.404.305-.274.457-.649.457-1.125 0-1.028-.559-1.541-1.676-1.541h-1.875zm0-.903h1.699c.493 0 .885-.123 1.178-.369.297-.246.446-.58.446-1.002 0-.468-.137-.808-.411-1.02-.273-.214-.689-.322-1.248-.322h-1.664v2.713zm12.651 3.774c-.289.414-.694.725-1.213.931-.516.204-1.117.305-1.805.305-.695 0-1.312-.162-1.852-.486a3.29 3.29 0 01-1.253-1.395c-.293-.601-.444-1.299-.452-2.092V64.4c0-1.285.299-2.28.897-2.988.601-.707 1.445-1.06 2.531-1.06.891 0 1.608.228 2.151.685.542.453.875 1.098.996 1.934h-1.125c-.211-1.13-.883-1.694-2.016-1.694-.754 0-1.326.266-1.717.797-.387.528-.582 1.293-.586 2.297v.697c0 .957.219 1.72.657 2.285.437.563 1.029.844 1.775.844.422 0 .791-.047 1.107-.14.317-.094.578-.252.785-.475v-1.916h-1.974v-.914h3.094v3.129z" fill="#E2E7E4"/><path fill="#CACFCC" stroke="#fff" d="M256.5 45.5h126v38h-126z"/><path d="M315.695 65.232h-3.58V69h-1.125v-8.531h5.285v.925h-4.16v2.919h3.58v.92zm8.227 2.649c-.289.414-.693.725-1.213.931-.516.204-1.117.305-1.805.305-.695 0-1.312-.162-1.851-.486a3.3 3.3 0 01-1.254-1.395c-.293-.601-.444-1.299-.451-2.092V64.4c0-1.285.298-2.28.896-2.988.602-.707 1.445-1.06 2.531-1.06.891 0 1.608.228 2.151.685.543.453.875 1.098.996 1.934h-1.125c-.211-1.13-.883-1.694-2.016-1.694-.754 0-1.326.266-1.717.797-.386.528-.582 1.293-.585 2.297v.697c0 .957.218 1.72.656 2.285.437.563 1.029.844 1.775.844.422 0 .791-.047 1.108-.14.316-.094.578-.252.785-.475v-1.916h-1.975v-.914h3.094v3.129z" fill="#E2E7E4"/><path fill="#223549" stroke="#fff" d="M78.5 129.5h126v38h-126z"/><path d="M144.059 149.361c0 1.27-.217 2.213-.651 2.83-.433.618-1.111.926-2.033.926-.91 0-1.584-.301-2.021-.902-.438-.606-.665-1.508-.68-2.707v-1.447c0-1.254.217-2.186.65-2.795.434-.61 1.114-.914 2.039-.914.918 0 1.594.294 2.028.884.433.586.656 1.493.668 2.719v1.406zm-1.084-1.482c0-.918-.129-1.586-.387-2.004-.258-.422-.666-.633-1.225-.633-.554 0-.959.209-1.213.627-.254.418-.384 1.061-.392 1.928v1.734c0 .922.133 1.604.398 2.045.27.438.676.656 1.219.656.535 0 .932-.207 1.189-.621.262-.414.399-1.066.411-1.957v-1.775z" fill="#E2E7E4"/><path fill="#3B5D7F" stroke="#fff" d="M256.5 129.5h126v38h-126z"/><path d="M321.883 146.695c0 .426-.113.805-.34 1.137a2.267 2.267 0 01-.908.779c.445.192.797.471 1.054.838.262.367.393.783.393 1.248 0 .739-.25 1.326-.75 1.764-.496.437-1.15.656-1.963.656-.82 0-1.478-.219-1.974-.656-.493-.441-.739-1.029-.739-1.764 0-.461.125-.877.375-1.248a2.379 2.379 0 011.049-.844 2.225 2.225 0 01-.896-.779 2.008 2.008 0 01-.329-1.131c0-.718.231-1.289.692-1.711.461-.422 1.068-.632 1.822-.632.75 0 1.356.21 1.817.632.464.422.697.993.697 1.711zm-.885 3.979c0-.477-.152-.865-.457-1.166-.301-.301-.695-.451-1.184-.451-.488 0-.88.148-1.177.445-.293.297-.44.687-.44 1.172 0 .484.143.865.428 1.142.289.278.689.416 1.201.416.508 0 .906-.138 1.195-.416.29-.281.434-.662.434-1.142zm-1.629-5.432c-.426 0-.771.133-1.037.399-.262.261-.393.619-.393 1.072 0 .433.129.785.387 1.055.262.265.61.398 1.043.398.434 0 .779-.133 1.037-.398.262-.27.393-.622.393-1.055 0-.434-.135-.787-.404-1.061-.27-.273-.612-.41-1.026-.41z" fill="#E2E7E4"/><path fill="#DF5167" stroke="#fff" d="M78.5 213.5h126v38h-126z"/><path d="M142.271 237h-1.089v-7.225l-2.186.803v-.984l3.106-1.166h.169V237z" fill="#E2E7E4"/><path fill="#F84863" stroke="#fff" d="M256.5 213.5h126v38h-126z"/><path d="M320.863 233.25c-.226.27-.498.486-.814.65a2.185 2.185 0 01-1.031.246c-.493 0-.922-.121-1.289-.363a2.366 2.366 0 01-.844-1.019 3.512 3.512 0 01-.299-1.459c0-.571.107-1.084.322-1.541.219-.457.528-.807.926-1.049.398-.242.863-.363 1.395-.363.843 0 1.507.316 1.992.949.488.629.732 1.488.732 2.578v.316c0 1.66-.328 2.873-.984 3.639-.657.762-1.647 1.152-2.971 1.172h-.211v-.914h.229c.894-.016 1.582-.248 2.062-.697.481-.454.742-1.168.785-2.145zm-1.67 0c.364 0 .698-.111 1.002-.334.309-.223.534-.498.674-.826v-.434c0-.711-.154-1.289-.463-1.734-.308-.445-.699-.668-1.172-.668a1.39 1.39 0 00-1.148.551c-.289.363-.434.843-.434 1.441 0 .582.139 1.063.416 1.442a1.34 1.34 0 001.125.562z" fill="#E2E7E4"/><path fill="#6CA573" stroke="#fff" d="M78.5 297.5h126v38h-126z"/><path d="M144.299 321h-5.59v-.779l2.953-3.282c.438-.496.738-.898.902-1.207.168-.312.252-.634.252-.966 0-.446-.134-.811-.404-1.096-.269-.285-.629-.428-1.078-.428-.539 0-.959.154-1.26.463-.297.305-.445.731-.445 1.277h-1.084c0-.785.252-1.42.756-1.904.508-.484 1.185-.726 2.033-.726.793 0 1.42.209 1.881.627.461.414.691.966.691 1.658 0 .84-.535 1.84-1.605 3l-2.285 2.478h4.283V321z" fill="#E2E7E4"/><path fill="#88CF91" stroke="#fff" d="M256.5 297.5h126v38h-126z"/><path d="M317.271 321h-1.089v-7.225l-2.186.803v-.984l3.106-1.166h.169V321zm8.526-3.639c0 1.27-.217 2.213-.651 2.83-.433.618-1.111.926-2.033.926-.91 0-1.584-.301-2.021-.902-.438-.606-.664-1.508-.68-2.707v-1.447c0-1.254.217-2.186.65-2.795.434-.61 1.114-.914 2.04-.914.918 0 1.593.294 2.027.884.433.586.656 1.493.668 2.719v1.406zm-1.084-1.482c0-.918-.129-1.586-.387-2.004-.258-.422-.666-.633-1.224-.633-.555 0-.959.209-1.213.627-.254.418-.385 1.061-.393 1.928v1.734c0 .922.133 1.604.399 2.045.269.438.675.656 1.218.656.535 0 .932-.207 1.19-.621.261-.414.398-1.066.41-1.957v-1.775z" fill="#E2E7E4"/><path fill="#E8B189" stroke="#fff" d="M78.5 381.5h126v38h-126z"/><path d="M140.285 400.207h.815c.511-.008.914-.143 1.207-.404.293-.262.439-.615.439-1.061 0-1-.498-1.5-1.494-1.5-.469 0-.844.135-1.125.404-.277.266-.416.62-.416 1.061h-1.084c0-.676.246-1.236.738-1.682.496-.449 1.125-.673 1.887-.673.805 0 1.436.212 1.893.638.457.426.685 1.018.685 1.776 0 .371-.121.73-.363 1.078a2.162 2.162 0 01-.979.779c.469.148.83.395 1.084.738.258.344.387.764.387 1.26 0 .766-.25 1.373-.75 1.822-.5.45-1.15.674-1.951.674-.801 0-1.453-.217-1.957-.65-.5-.434-.75-1.006-.75-1.717h1.09c0 .449.146.809.439 1.078.293.27.686.404 1.178.404.523 0 .924-.136 1.201-.41.277-.273.416-.666.416-1.177 0-.497-.152-.877-.457-1.143-.305-.266-.744-.402-1.318-.41h-.815v-.885z" fill="#E2E7E4"/><path fill="#F9EC7E" stroke="#fff" d="M256.5 381.5h126v38h-126z"/><path d="M320.271 405h-1.089v-7.225l-2.186.803v-.984l3.106-1.166h.169V405zm6.739 0h-1.09v-7.225l-2.186.803v-.984l3.106-1.166h.17V405z" fill="#E2E7E4"/><path fill="#64ACBF" stroke="#fff" d="M78.5 465.5h126v38h-126z"/><path d="M143.285 486.135h1.184v.885h-1.184V489h-1.09v-1.98h-3.884v-.639l3.82-5.912h1.154v5.666zm-3.744 0h2.654v-4.184l-.129.235-2.525 3.949z" fill="#E2E7E4"/><path fill="#7CD8F1" stroke="#fff" d="M256.5 465.5h126v38h-126z"/><path d="M320.271 489h-1.089v-7.225l-2.186.803v-.984l3.106-1.166h.169V489zm8.766 0h-5.59v-.779l2.953-3.282c.438-.496.739-.898.903-1.207.168-.312.252-.634.252-.966 0-.446-.135-.811-.405-1.096-.269-.285-.629-.428-1.078-.428-.539 0-.959.154-1.26.463-.296.305-.445.731-.445 1.277h-1.084c0-.785.252-1.42.756-1.904.508-.484 1.186-.726 2.033-.726.793 0 1.42.209 1.881.627.461.414.692.966.692 1.658 0 .84-.536 1.84-1.606 3l-2.285 2.478h4.283V489z" fill="#E2E7E4"/><path fill="#858AC8" stroke="#fff" d="M78.5 549.5h126v38h-126z"/><path d="M139.207 568.723l.434-4.254h4.371v1.002h-3.451l-.258 2.326a2.753 2.753 0 011.424-.369c.777 0 1.394.258 1.851.773.457.512.686 1.205.686 2.08 0 .879-.239 1.573-.715 2.08-.473.504-1.135.756-1.987.756-.753 0-1.369-.209-1.845-.627-.477-.418-.748-.996-.815-1.734h1.026c.066.488.24.857.521 1.107.281.246.653.369 1.113.369.504 0 .899-.171 1.184-.515.289-.344.434-.819.434-1.424 0-.57-.157-1.027-.469-1.371-.309-.348-.721-.522-1.236-.522-.473 0-.844.104-1.114.311l-.287.234-.867-.222z" fill="#E2E7E4"/><path fill="#A3A8E7" stroke="#fff" d="M256.5 549.5h126v38h-126z"/><path d="M320.271 573h-1.089v-7.225l-2.186.803v-.984l3.106-1.166h.169V573zm4.752-4.793h.815c.512-.008.914-.143 1.207-.404.293-.262.439-.615.439-1.061 0-1-.498-1.5-1.494-1.5-.469 0-.844.135-1.125.404-.277.266-.416.62-.416 1.061h-1.084c0-.676.246-1.236.739-1.682.496-.449 1.125-.673 1.886-.673.805 0 1.436.212 1.893.638.457.426.685 1.018.685 1.776 0 .371-.121.73-.363 1.078a2.16 2.16 0 01-.978.779c.468.148.83.395 1.084.738.257.344.386.764.386 1.26 0 .766-.25 1.373-.75 1.822-.5.45-1.15.674-1.951.674-.801 0-1.453-.217-1.957-.65-.5-.434-.75-1.006-.75-1.717h1.09c0 .449.146.809.439 1.078.293.27.686.404 1.178.404.524 0 .924-.136 1.201-.41.278-.273.416-.666.416-1.177 0-.497-.152-.877-.457-1.143-.304-.266-.744-.402-1.318-.41h-.815v-.885z" fill="#E2E7E4"/><path fill="#96CDCA" stroke="#fff" d="M78.5 633.5h126v38h-126z"/><path d="M142.963 648.463v.92h-.199c-.844.015-1.516.265-2.016.75-.5.484-.789 1.166-.867 2.045.449-.516 1.062-.774 1.84-.774.742 0 1.334.262 1.775.785.445.524.668 1.2.668 2.028 0 .879-.24 1.582-.721 2.109-.476.528-1.117.791-1.922.791-.816 0-1.478-.312-1.986-.937-.508-.629-.762-1.438-.762-2.426v-.416c0-1.57.334-2.77 1.002-3.598.672-.832 1.67-1.258 2.995-1.277h.193zm-1.424 3.844c-.371 0-.713.111-1.025.334-.313.222-.53.502-.651.838v.398c0 .703.158 1.269.475 1.699.316.43.711.645 1.183.645.489 0 .872-.18 1.149-.539.281-.36.422-.83.422-1.412 0-.586-.143-1.059-.428-1.418a1.349 1.349 0 00-1.125-.545z" fill="#E2E7E4"/><path fill="#B5FFFB" stroke="#fff" d="M256.5 633.5h126v38h-126z"/><path d="M320.271 657h-1.089v-7.225l-2.186.803v-.984l3.106-1.166h.169V657zm7.752-2.865h1.184v.885h-1.184V657h-1.089v-1.98h-3.885v-.639l3.82-5.912h1.154v5.666zm-3.744 0h2.655v-4.184l-.129.235-2.526 3.949z" fill="#E2E7E4"/><path fill="#37526C" stroke="#fff" d="M78.5 717.5h126v38h-126z"/><path d="M144.217 733.078L140.684 741h-1.137l3.521-7.641h-4.617v-.89h5.766v.609z" fill="#E2E7E4"/><path fill="#E2E7E4" stroke="#fff" d="M256.5 717.5h126v38h-126z"/><path d="M320.271 741h-1.089v-7.225l-2.186.803v-.984l3.106-1.166h.169V741zm3.674-4.277l.434-4.254h4.371v1.002h-3.451l-.258 2.326a2.755 2.755 0 011.424-.369c.777 0 1.394.258 1.851.773.457.512.686 1.205.686 2.08 0 .879-.238 1.573-.715 2.08-.473.504-1.135.756-1.986.756-.754 0-1.369-.209-1.846-.627-.476-.418-.748-.996-.814-1.734h1.025c.066.488.24.857.522 1.107.281.246.652.369 1.113.369.504 0 .898-.171 1.183-.515.289-.344.434-.819.434-1.424 0-.57-.156-1.027-.469-1.371-.308-.348-.72-.522-1.236-.522-.473 0-.844.104-1.113.311l-.288.234-.867-.222z" fill="#E2E7E4"/></svg>